Coordinates
version=1
nRows=29
nColumns=24
inDegrees=yes

Units are S.I. units (second, meters, Newtons, ...)
Angles are in degrees.

endheader
time	pelvis_tilt	pelvis_list	pelvis_rotation	pelvis_tx	pelvis_ty	pelvis_tz	hip_flexion_r	hip_adduction_r	hip_rotation_r	knee_angle_r	ankle_angle_r	subtalar_angle_r	mtp_angle_r	hip_flexion_l	hip_adduction_l	hip_rotation_l	knee_angle_l	ankle_angle_l	subtalar_angle_l	mtp_angle_l	lumbar_extension	lumbar_bending	lumbar_rotation
      0.45700000	     -9.97599351	     -0.01502744	      0.82850407	     -0.77609988	      1.03181616	      0.29780630	     35.89931109	     -0.69172053	     -5.61448015	    -11.41899399	      7.65223683	     -0.62705507	      8.81073739	     -3.75249530	     -0.73930148	      0.70966365	    -11.52475275	     20.59437291	      7.94517860	      7.67691690	     -2.90995496	     -1.61476008	     -1.43397181
      0.46116667	     -9.92976104	      0.00742528	      0.99129549	     -0.76941841	      1.03072808	      0.29797486	     35.85665819	     -0.75515916	     -5.62489038	    -11.38444996	      7.56155941	     -0.58918794	      8.81358766	     -3.85311904	     -0.78609641	      0.62306180	    -12.24142530	     20.74808518	      8.35951412	      7.74009746	     -2.90276017	     -1.59991049	     -1.62190758
      0.46533333	     -9.85577548	      0.02414889	      1.13009730	     -0.76268540	      1.02971258	      0.29820097	     35.79180053	     -0.79713874	     -5.62570165	    -11.45807595	      7.44607182	     -0.59984589	      8.82142650	     -3.95577570	     -0.85186383	      0.42885597	    -13.02270871	     20.88595909	      8.86493628	      7.86256509	     -2.92349177	     -1.61019353	     -1.61445235
      0.46950000	     -9.78709375	      0.03739704	      1.26973250	     -0.75593374	      1.02872703	      0.29843085	     35.73713406	     -0.83498766	     -5.61860859	    -11.63527454	      7.30432164	     -0.65729521	      8.83299081	     -4.02126774	     -0.92627078	      0.25073924	    -13.87017036	     20.99356563	      9.37287165	      8.03538500	     -2.93750507	     -1.60703134	     -1.65057307
      0.47366667	     -9.68983297	      0.03999575	      1.40183263	     -0.74915117	      1.02782699	      0.29868085	     35.65493836	     -0.85758545	     -5.61658278	    -11.90515553	      7.13610376	     -0.75181992	      8.84896560	     -4.08459483	     -1.02289684	      0.02974623	    -14.78909864	     21.06467728	      9.91971849	      8.26366433	     -2.98598623	     -1.58436424	     -1.65838264
      0.47783333	     -9.58911973	      0.03451569	      1.52738736	     -0.74233437	      1.02697879	      0.29894865	     35.57224770	     -0.86755030	     -5.60734017	    -12.26450010	      6.92846439	     -0.90664468	      8.86853518	     -4.12282614	     -1.13746027	     -0.21592034	    -15.76659460	     21.10083709	     10.49517417	      8.55079076	     -3.02890703	     -1.54862695	     -1.66183927
      0.48200000	     -9.46723070	      0.02819848	      1.64320209	     -0.73551263	      1.02618125	      0.29924660	     35.47809304	     -0.87071716	     -5.58538078	    -12.71960153	      6.70178774	     -1.08855170	      8.89153283	     -4.14855760	     -1.26346308	     -0.48735552	    -16.81814345	     21.10061304	     11.09072085	      8.89073367	     -3.10192983	     -1.51028869	     -1.64703472
      0.48616667	     -9.35019129	      0.01264556	      1.74540860	     -0.72865585	      1.02541466	      0.29958685	     35.39278640	     -0.85563233	     -5.55571510	    -13.24804498	      6.43992781	     -1.32804606	      8.91634542	     -4.13605620	     -1.40989868	     -0.79075863	    -17.94053794	     21.04558094	     11.69619686	      9.30154112	     -3.15429859	     -1.45344379	     -1.62466978
      0.49033333	     -9.19533617	     -0.00920619	      1.84644745	     -0.72180667	      1.02475293	      0.29993904	     35.27221766	     -0.83302888	     -5.52152656	    -13.84771172	      6.15572012	     -1.59341227	      8.93770816	     -4.12479793	     -1.57359720	     -1.09348827	    -19.13740042	     20.94364630	     12.30587990	      9.73532553	     -3.26062033	     -1.39546137	     -1.58594510
      0.49450000	     -9.04783166	     -0.00839272	      1.92866712	     -0.71495915	      1.02411289	      0.30034942	     35.17420347	     -0.81576423	     -5.41426488	    -14.52713401	      5.85043824	     -1.99897672	      9.15848938	     -4.09177017	     -1.71382483	     -1.35441845	    -20.34396932	     20.62045580	     12.76048326	     14.23996292	     -3.36000061	     -1.35812138	     -1.53735909
      0.49866667	     -8.92589072	     -0.03268917	      2.01941119	     -0.70808839	      1.02345002	      0.30072853	     35.12003795	     -0.79511906	     -5.41916053	    -15.29090664	      5.55103266	     -2.19273475	      9.15142997	     -3.96441143	     -1.89756252	     -1.67216318	    -21.69475254	     20.43223247	     13.35312055	     14.34269509	     -3.40682175	     -1.28693304	     -1.47658631
      0.50283333	     -8.75410963	     -0.06044780	      2.08664015	     -0.70124368	      1.02289989	      0.30119040	     35.01526000	     -0.74516562	     -5.33044143	    -16.09144318	      5.23326694	     -2.56664184	      9.13587117	     -3.85885154	     -2.09821688	     -2.00877149	    -23.10430209	     20.13969912	     13.94244043	     14.53218758	     -3.52550716	     -1.20606898	     -1.40519890
      0.50700000	     -8.58978200	     -0.08308251	      2.15057350	     -0.69441609	      1.02236891	      0.30167988	     34.93069523	     -0.69878222	     -5.23482348	    -16.94917954	      4.93641987	     -2.93321741	      9.11332475	     -3.70245464	     -2.30297142	     -2.33846232	    -24.58541211	     19.77286432	     14.49610352	     14.77929345	     -3.63341046	     -1.14108830	     -1.32238238
      0.51116667	     -8.41777375	     -0.11253262	      2.20315771	     -0.68760902	      1.02187483	      0.30220462	     34.84910768	     -0.63793645	     -5.12304800	    -17.85141363	      4.65299647	     -3.32148604	      9.07947319	     -3.51656879	     -2.52470941	     -2.66619930	    -26.13082945	     19.33273953	     15.02466680	     15.10066190	     -3.75094707	     -1.05839927	     -1.22524755
      0.51533333	     -8.24858557	     -0.13207519	      2.25524428	     -0.68082835	      1.02142406	      0.30273892	     34.77910325	     -0.58551801	     -4.99637171	    -18.79381189	      4.39041228	     -3.73574545	      8.62234739	     -3.29411289	     -2.73542299	     -2.93210247	    -27.70935515	     18.67855697	     15.38528213	     19.43204345	     -3.87063670	     -0.98195287	     -1.11282299
      0.51950000	     -8.06869403	     -0.15532408	      2.29897261	     -0.67408079	      1.02098693	      0.30330136	     34.71425958	     -0.52815749	     -4.88422450	    -19.78626320	      4.22650868	     -4.04596006	      8.60259839	     -3.03462533	     -2.96420262	     -3.22277261	    -29.38870296	     18.09748725	     15.83211010	     19.50111389	     -4.00376389	     -0.91076106	     -1.02340659
      0.52366667	     -7.89312523	     -0.18740301	      2.33701005	     -0.66736375	      1.02058023	      0.30389201	     34.65164638	     -0.45313810	     -4.74280548	    -20.78258076	      4.06720408	     -4.41935152	      8.56604229	     -2.72903554	     -3.20977260	     -3.49774801	    -31.12407816	     17.40925773	     16.21767823	     19.63232215	     -4.13122602	     -0.82119168	     -0.91162919
      0.52783333	     -7.71191258	     -0.22616128	      2.37073921	     -0.66068871	      1.02020405	      0.30449165	     34.58606203	     -0.36758199	     -4.59753061	    -21.79290072	      3.96502859	     -4.77469932	      8.51400777	     -2.39034491	     -3.46710143	     -3.74596024	    -32.91931943	     16.64157121	     16.53872700	     19.81631578	     -4.27047530	     -0.72130465	     -0.79065454
      0.53200000	     -7.53070949	     -0.26428434	      2.40818004	     -0.65404913	      1.01987453	      0.30508259	     34.51529721	     -0.28220294	     -4.45321804	    -22.80418441	      3.93575523	     -5.11180037	      7.64140377	     -2.01714344	     -3.72046555	     -3.93869979	    -34.74229318	     15.71873977	     16.71490277	     22.86642436	     -4.41412243	     -0.62213673	     -0.64713269
      0.53616667	     -7.36712106	     -0.30624100	      2.43826845	     -0.64744057	      1.01953341	      0.30568933	     34.46135544	     -0.18968006	     -4.31416741	    -23.81522735	      3.97805355	     -5.38176449	      7.62450092	     -1.58369256	     -3.98520110	     -4.14045937	    -36.62670364	     14.79146470	     16.90279203	     22.89744073	     -4.53103170	     -0.51251099	     -0.55837165
      0.54033333	     -7.19135495	     -0.36095904	      2.46699714	     -0.64088340	      1.01923978	      0.30628835	     34.38156040	     -0.08063875	     -4.17547954	    -24.80115985	      4.05829261	     -5.65720684	      7.59166698	     -1.12935579	     -4.26293012	     -4.30566109	    -38.54834335	     13.80853779	     17.00972717	     22.95349502	     -4.67214955	     -0.38795101	     -0.44048849
      0.54450000	     -7.01513566	     -0.41864156	      2.50280807	     -0.63437968	      1.01899606	      0.30685021	     34.28378716	      0.02916566	     -4.04398064	    -25.75663696	      4.21970755	     -5.89271083	      7.55897925	     -0.64281021	     -4.53598831	     -4.41967645	    -40.49178659	     12.74160216	     17.02169762	     23.00032768	     -4.82556009	     -0.24734276	     -0.33120384
      0.54866667	     -6.82900163	     -0.48647691	      2.53537159	     -0.62792590	      1.01879447	      0.30740010	     34.16057062	      0.15081122	     -3.93006912	    -26.68437796	      4.43253465	     -6.10944400	      7.52591854	     -0.13652638	     -4.81879152	     -4.51873534	    -42.45479081	     11.67450784	     16.97651299	     23.03554375	     -4.99120603	     -0.10104266	     -0.22437796
      0.55283333	     -6.68833222	     -0.57274829	      2.56287705	     -0.62148983	      1.01855859	      0.30793654	     34.06203417	      0.29338259	     -3.82645917	    -27.56332850	      4.65734157	     -6.33626886	      7.45561752	      0.44986619	     -5.12138475	     -4.62102340	    -44.44349396	     10.56183171	     16.85502399	     23.09223341	     -5.08269594	      0.06684462	     -0.09013496
      0.55700000	     -6.50191429	     -0.65773307	      2.60001654	     -0.61513764	      1.01845767	      0.30843313	     33.88649262	      0.43482877	     -3.72408987	    -28.38872926	      4.99152282	     -6.51549956	      7.42214827	      1.00967271	     -5.41121383	     -4.66694717	    -46.41795540	      9.41053855	     16.68710263	     23.09993874	     -5.26492618	      0.24361763	      0.00951898
      0.56116667	     -6.37533321	     -0.74284157	      2.63764609	     -0.60881752	      1.01830232	      0.30889178	     33.75482218	      0.57155531	     -3.64308786	    -29.17329447	      5.33280745	     -6.69400331	      7.24153454	      1.66181952	     -5.68678012	     -4.69041565	    -48.39274038	      8.25129959	     16.36781002	     23.12691861	     -5.35045886	      0.40068235	      0.14893171
      0.56533333	     -6.19684159	     -0.85814356	      2.67499175	     -0.60255348	      1.01830670	      0.30932243	     33.52371162	      0.74498079	     -3.56447261	    -29.86671328	      5.73407900	     -6.83346072	      7.20246132	      2.27441518	     -5.99619127	     -4.71307051	    -50.34544167	      7.10376613	     16.07987599	     23.09934610	     -5.52780979	      0.63518692	      0.24880943
      0.56950000	     -6.07211179	     -0.97270333	      2.71564651	     -0.59632190	      1.01827685	      0.30968793	     33.33352865	      0.90586606	     -3.52451315	    -30.52923920	      6.12158896	     -6.95107181	      7.10893381	      2.96476726	     -6.27974134	     -4.69582013	    -52.27700908	      5.97884161	     15.59259825	     23.01718252	     -5.62149712	      0.85502274	      0.36188158
      0.57366667	     -5.94284063	     -1.08733662	      2.76534534	     -0.59014436	      1.01833275	      0.31001764	     33.10256383	      1.06693279	     -3.48215073	    -31.12001092	      6.56732551	     -7.06149759	      7.00088595	      3.66727582	     -6.55327556	     -4.66015768	    -54.16903820	      4.89697566	     15.10006456	     22.87487783	     -5.73242417	      1.07713809	      0.46724134
